<svg width="500" height="500" viewBox="0 0 500 500" fill="none" xmlns="http://www.w3.org/2000/svg">
<path fill-rule="evenodd" clip-rule="evenodd" d="M83.1904 249.571C37.2456 203.627 37.2456 129.135 83.1903 83.1905C129.135 37.2458 203.626 37.2458 249.571 83.1905L416.81 250.429C462.754 296.374 462.754 370.865 416.81 416.81C370.865 462.755 296.374 462.755 250.429 416.81L199.39 365.771L224.087 341.073L275.062 392.049C307.367 424.354 359.744 424.354 392.049 392.049C424.354 359.744 424.354 307.368 392.049 275.063L341.073 224.087L365.77 199.39L300.61 134.23L275.913 158.927L224.938 107.951C192.633 75.6465 140.256 75.6465 107.951 107.951C75.6462 140.256 75.6463 192.633 107.951 224.938L158.927 275.913L134.23 300.61L83.1904 249.571Z" fill="white"/>
</svg>
